<?xml version="1.0" standalone="no"?>
<!DOCTYPE svg PUBLIC "-//W3C//DTD SVG 20010904//EN"
 "http://www.w3.org/TR/2001/REC-SVG-20010904/DTD/svg10.dtd">
<svg version="1.0" xmlns="http://www.w3.org/2000/svg"
 width="84.000000pt" height="88.000000pt" viewBox="0 0 84.000000 88.000000"
 preserveAspectRatio="xMidYMid meet">

<g transform="translate(0.000000,88.000000) scale(0.100000,-0.100000)"
fill="#000000" stroke="none">
<path d="M30 855 c-8 -22 -30 -135 -30 -157 0 -5 101 -8 225 -8 l226 0 -7 53
c-4 28 -12 70 -18 92 l-12 40 -187 3 -187 2 -10 -25z m386 -50 c7 -27 13 -62
13 -77 l1 -28 -205 0 -205 0 0 23 c0 21 16 99 25 125 4 10 45 12 182 10 l178
-3 11 -50z"/>
<path d="M3 599 c10 -114 85 -227 165 -248 l27 -7 3 -152 3 -152 -53 0 c-57 0
-85 -11 -74 -29 10 -15 292 -15 302 0 11 18 -17 29 -74 29 l-53 0 3 152 3 152
27 7 c80 21 155 134 165 248 l6 61 -228 0 -228 0 6 -61z m427 8 c0 -101 -81
-226 -158 -244 l-37 -9 0 -164 0 -165 65 -6 c43 -4 18 -6 -75 -6 -93 0 -118 2
-75 6 l65 6 0 165 0 164 -37 9 c-77 18 -158 143 -158 244 l0 43 205 0 205 0 0
-43z"/>
</g>
</svg>
