<?xml version="1.0" standalone="no"?>
<!DOCTYPE svg PUBLIC "-//W3C//DTD SVG 20010904//EN"
 "http://www.w3.org/TR/2001/REC-SVG-20010904/DTD/svg10.dtd">
<svg version="1.0" xmlns="http://www.w3.org/2000/svg"
 width="117.000000pt" height="74.000000pt" viewBox="0 0 117.000000 74.000000"
 preserveAspectRatio="xMidYMid meet">

<g transform="translate(0.000000,74.000000) scale(0.100000,-0.100000)"
fill="#80CBC4" stroke="none">
<path d="M255 715 c-45 -23 -92 -81 -111 -139 -9 -28 -30 -77 -46 -109 -17
-34 -26 -66 -23 -77 9 -28 72 -79 124 -102 25 -10 47 -21 49 -23 2 -2 -4 -17
-14 -34 -15 -25 -25 -30 -74 -36 -68 -8 -113 -33 -140 -77 -24 -40 -27 -103
-5 -112 17 -6 18 -4 31 59 12 53 55 81 138 90 l63 7 25 51 25 52 52 2 c28 0
51 -3 51 -9 0 -5 13 -29 30 -52 28 -41 32 -44 91 -50 80 -9 119 -44 119 -104
0 -43 20 -61 40 -37 22 26 1 96 -39 136 -31 31 -45 38 -96 43 -55 7 -62 11
-83 43 -13 19 -22 36 -20 37 2 1 22 10 46 21 41 18 112 84 112 105 0 6 -13 36
-29 68 -16 31 -34 75 -41 97 -17 57 -71 129 -113 148 -44 21 -122 22 -162 2z
m167 -21 c35 -18 84 -92 99 -149 6 -22 22 -60 35 -84 13 -24 24 -49 24 -56 0
-24 -49 -72 -97 -96 -41 -20 -64 -23 -148 -23 -84 0 -107 3 -148 23 -47 23
-97 72 -97 94 0 7 14 39 30 71 17 32 30 66 30 75 0 20 53 112 74 130 49 41
135 47 198 15z m-165 -476 c-24 -41 -28 -43 -85 -50 -94 -10 -131 -39 -143
-111 l-6 -42 -2 38 c-2 72 51 117 149 127 51 5 56 8 75 42 11 21 24 38 29 38
4 0 -3 -19 -17 -42z m197 2 c24 -37 29 -40 74 -40 83 0 143 -57 141 -132 -1
-30 -2 -29 -10 12 -13 68 -52 100 -127 107 -57 5 -63 8 -87 44 -14 21 -25 41
-25 44 0 12 9 3 34 -35z"/>
<path d="M300 703 c-40 -8 -88 -51 -115 -103 -14 -27 -25 -55 -25 -61 0 -6
-14 -40 -32 -76 l-31 -64 33 -34 c48 -49 109 -70 205 -70 97 0 157 21 205 70
l34 35 -28 57 c-15 31 -34 77 -43 102 -17 52 -54 105 -86 125 -26 16 -82 25
-117 19z m108 -33 c35 -22 66 -66 83 -120 6 -19 23 -62 37 -94 l26 -59 -39
-34 c-47 -40 -89 -53 -179 -53 -87 0 -137 15 -184 55 l-37 33 27 58 c15 33 30
70 34 84 12 46 55 111 87 131 41 25 103 24 145 -1z"/>
<path d="M565 720 c-12 -19 6 -30 51 -30 64 0 84 -23 84 -100 0 -45 4 -62 15
-66 10 -4 15 -20 15 -44 0 -30 -5 -40 -20 -45 -16 -5 -20 -15 -20 -51 0 -47
-17 -91 -44 -113 -20 -17 -21 -41 -1 -41 8 0 25 -16 37 -35 19 -29 29 -35 58
-35 94 0 150 -44 150 -117 0 -26 4 -33 20 -33 47 0 13 127 -44 161 -16 10 -54
21 -83 25 -78 9 -91 32 -63 113 11 33 20 65 20 71 0 5 9 19 20 30 25 25 28
111 5 130 -9 7 -15 29 -15 52 0 47 -24 103 -54 123 -23 17 -121 20 -131 5z
m95 -6 c44 -9 70 -54 70 -120 0 -37 4 -54 15 -58 11 -4 15 -21 15 -60 0 -46
-3 -56 -20 -61 -14 -4 -20 -15 -20 -36 0 -17 -9 -52 -21 -79 l-21 -48 24 -36
c20 -32 28 -36 66 -36 91 0 144 -48 140 -127 l-1 -38 -4 39 c-8 75 -56 116
-137 116 -42 0 -48 4 -74 38 -16 23 -33 37 -42 34 -10 -3 -7 4 7 19 28 31 53
90 53 128 0 21 6 32 20 36 16 5 20 15 20 51 0 30 -5 46 -15 50 -11 4 -15 21
-15 58 0 88 -54 142 -121 121 -15 -5 -19 -4 -15 4 8 13 29 14 76 5z"/>
<path d="M817 723 c-20 -20 -4 -33 41 -33 26 0 52 -4 58 -8 22 -14 34 -52 34
-106 0 -43 3 -56 15 -56 11 0 15 -11 15 -39 0 -31 -4 -41 -20 -46 -15 -5 -20
-15 -20 -41 0 -42 -23 -100 -53 -133 -18 -20 -19 -25 -7 -29 8 -3 29 -20 45
-37 25 -27 40 -34 89 -40 77 -9 116 -44 116 -103 0 -25 5 -42 14 -45 21 -8 26
2 26 56 0 44 -4 54 -38 87 -32 32 -46 38 -98 45 -52 6 -63 11 -76 33 -14 25
-14 31 3 67 10 22 19 54 19 70 0 19 7 35 20 43 16 10 20 23 20 72 0 39 -5 62
-14 67 -8 5 -15 32 -18 67 -4 51 -9 63 -37 88 -25 22 -41 28 -79 28 -27 0 -52
-3 -55 -7z m122 -26 c22 -18 41 -72 41 -116 0 -25 5 -41 15 -45 24 -9 20 -101
-4 -118 -11 -8 -23 -32 -26 -53 -4 -22 -16 -56 -26 -76 -18 -36 -18 -36 7 -73
23 -33 29 -36 72 -36 83 0 143 -57 141 -132 -1 -30 -2 -29 -10 12 -13 69 -53
103 -128 108 -57 4 -61 6 -86 44 -16 24 -30 36 -38 32 -7 -4 -5 1 4 12 30 35
49 83 49 122 0 31 4 41 20 45 17 4 20 14 20 55 0 35 -4 52 -15 55 -10 5 -14
21 -13 59 2 67 -20 103 -66 112 -18 4 -41 3 -51 0 -13 -6 -16 -4 -10 5 9 16
81 7 104 -12z"/>
</g>
</svg>
