<?xml version="1.0" standalone="no"?>
<!DOCTYPE svg PUBLIC "-//W3C//DTD SVG 20010904//EN"
 "http://www.w3.org/TR/2001/REC-SVG-20010904/DTD/svg10.dtd">
<svg version="1.0" xmlns="http://www.w3.org/2000/svg"
 width="97.000000pt" height="97.000000pt" viewBox="0 0 97.000000 97.000000"
 preserveAspectRatio="xMidYMid meet">

<g transform="translate(0.000000,97.000000) scale(0.100000,-0.100000)"
fill="#000000" stroke="none">
<path d="M386 959 c-137 -23 -271 -130 -343 -276 -37 -76 -38 -79 -38 -193 0
-114 1 -117 38 -193 101 -204 295 -310 509 -279 158 24 288 123 365 279 37 76
38 79 38 193 0 114 -1 117 -38 193 -105 212 -302 315 -531 276z m37 -16 c-7
-2 -19 -2 -25 0 -7 3 -2 5 12 5 14 0 19 -2 13 -5z m140 0 c-7 -2 -19 -2 -25 0
-7 3 -2 5 12 5 14 0 19 -2 13 -5z m48 -33 c120 -37 214 -121 276 -247 26 -53
28 -67 28 -173 0 -103 -3 -120 -25 -165 l-25 -50 -75 0 -75 0 0 50 0 50 38 3
c20 2 37 7 37 12 0 11 -68 328 -76 353 -3 10 -13 17 -22 15 -12 -2 -25 -45
-54 -178 -20 -96 -38 -180 -38 -187 0 -6 17 -13 38 -15 l37 -3 0 -50 0 -50
-85 0 -85 0 0 30 c0 23 5 31 23 33 12 2 22 9 22 15 0 7 -12 72 -26 145 -37
182 -51 182 -88 0 -14 -73 -26 -138 -26 -145 0 -6 10 -13 23 -15 17 -2 22 -10
22 -33 l0 -30 -85 0 -85 0 0 50 0 50 38 3 c20 2 37 9 37 15 0 7 -18 91 -38
187 -29 133 -42 176 -54 178 -9 2 -19 -5 -22 -15 -8 -27 -76 -340 -76 -352 0
-5 17 -11 38 -13 l37 -3 0 -50 0 -50 -68 -3 c-42 -2 -74 2 -83 9 -8 6 -24 43
-35 81 -30 99 -24 222 15 301 104 214 322 314 537 247z m-302 6 c-10 -9 -69
-36 -69 -32 0 7 52 35 64 36 5 0 7 -2 5 -4z m381 -11 c17 -9 30 -18 30 -21 0
-4 -59 23 -69 32 -10 9 13 3 39 -11z m-490 -48 c0 -2 -19 -21 -42 -42 l-43
-40 40 43 c36 39 45 47 45 39z m605 -37 c21 -22 37 -40 34 -40 -3 0 -23 18
-44 40 -21 22 -37 40 -34 40 3 0 23 -18 44 -40z m-701 -75 c-9 -14 -18 -25
-21 -25 -5 0 5 18 20 38 17 22 18 13 1 -13z m766 -6 c15 -28 5 -23 -15 7 -9
15 -12 23 -6 20 6 -4 16 -16 21 -27z m-591 -35 c1 -6 -6 -11 -14 -11 -17 0
-17 2 -8 36 6 23 7 23 14 5 4 -10 8 -24 8 -30z m430 0 c1 -6 -6 -11 -14 -11
-17 0 -17 2 -8 36 6 23 7 23 14 5 4 -10 8 -24 8 -30z m-641 -19 c-6 -14 -13
-23 -15 -21 -5 5 15 46 22 46 3 0 -1 -11 -7 -25z m842 -19 c0 -12 -5 -7 -19
24 -11 24 -11 24 3 6 9 -11 16 -24 16 -30z m-623 -8 c-3 -8 -6 -5 -6 6 -1 11
2 17 5 13 3 -3 4 -12 1 -19z m390 0 c-3 -8 -6 -5 -6 6 -1 11 2 17 5 13 3 -3 4
-12 1 -19z m-430 -10 c-3 -8 -6 -5 -6 6 -1 11 2 17 5 13 3 -3 4 -12 1 -19z
m470 0 c-3 -8 -6 -5 -6 6 -1 11 2 17 5 13 3 -3 4 -12 1 -19z m-423 -116 c13
-61 21 -113 18 -117 -8 -8 -90 -6 -95 3 -5 8 44 234 50 228 2 -2 14 -53 27
-114z m448 -92 c3 -22 -1 -25 -36 -28 -67 -6 -67 -6 -40 120 13 62 24 115 25
118 2 7 47 -181 51 -210z m-505 168 c-3 -8 -6 -5 -6 6 -1 11 2 17 5 13 3 -3 4
-12 1 -19z m60 0 c-3 -8 -6 -5 -6 6 -1 11 2 17 5 13 3 -3 4 -12 1 -19z m370 0
c-3 -8 -6 -5 -6 6 -1 11 2 17 5 13 3 -3 4 -12 1 -19z m60 0 c-3 -8 -6 -5 -6 6
-1 11 2 17 5 13 3 -3 4 -12 1 -19z m-234 -35 c4 -20 4 -39 2 -42 -3 -2 -5 3
-5 12 0 10 -4 17 -10 17 -5 0 -10 -7 -10 -17 0 -9 -2 -14 -5 -12 -7 7 7 79 15
79 4 0 10 -17 13 -37z m-466 -5 c-3 -8 -6 -5 -6 6 -1 11 2 17 5 13 3 -3 4 -12
1 -19z m910 0 c-3 -8 -6 -5 -6 6 -1 11 2 17 5 13 3 -3 4 -12 1 -19z m-710 -10
c-3 -8 -6 -5 -6 6 -1 11 2 17 5 13 3 -3 4 -12 1 -19z m510 0 c-3 -8 -6 -5 -6
6 -1 11 2 17 5 13 3 -3 4 -12 1 -19z m-420 -40 c-3 -8 -6 -5 -6 6 -1 11 2 17
5 13 3 -3 4 -12 1 -19z m330 0 c-3 -8 -6 -5 -6 6 -1 11 2 17 5 13 3 -3 4 -12
1 -19z m-430 -10 c-3 -8 -6 -5 -6 6 -1 11 2 17 5 13 3 -3 4 -12 1 -19z m530 0
c-3 -8 -6 -5 -6 6 -1 11 2 17 5 13 3 -3 4 -12 1 -19z m-290 -20 c-3 -8 -6 -5
-6 6 -1 11 2 17 5 13 3 -3 4 -12 1 -19z m50 0 c-3 -8 -6 -5 -6 6 -1 11 2 17 5
13 3 -3 4 -12 1 -19z m-13 -30 c4 -24 9 -53 13 -65 5 -20 1 -23 -27 -23 -28 0
-32 3 -27 23 4 12 9 41 13 65 4 23 10 42 14 42 4 0 10 -19 14 -42z m-287 10
c-3 -8 -6 -5 -6 6 -1 11 2 17 5 13 3 -3 4 -12 1 -19z m120 0 c-3 -8 -6 -5 -6
6 -1 11 2 17 5 13 3 -3 4 -12 1 -19z m310 0 c-3 -8 -6 -5 -6 6 -1 11 2 17 5
13 3 -3 4 -12 1 -19z m120 0 c-3 -8 -6 -5 -6 6 -1 11 2 17 5 13 3 -3 4 -12 1
-19z m-310 -30 c-3 -8 -6 -5 -6 6 -1 11 2 17 5 13 3 -3 4 -12 1 -19z m70 0
c-3 -8 -6 -5 -6 6 -1 11 2 17 5 13 3 -3 4 -12 1 -19z m-490 -35 c-3 -10 -5 -4
-5 12 0 17 2 24 5 18 2 -7 2 -21 0 -30z m170 15 c-3 -8 -6 -5 -6 6 -1 11 2 17
5 13 3 -3 4 -12 1 -19z m140 0 c-3 -8 -6 -5 -6 6 -1 11 2 17 5 13 3 -3 4 -12
1 -19z m290 0 c-3 -8 -6 -5 -6 6 -1 11 2 17 5 13 3 -3 4 -12 1 -19z m140 0
c-3 -8 -6 -5 -6 6 -1 11 2 17 5 13 3 -3 4 -12 1 -19z m170 -20 c-3 -7 -5 -2
-5 12 0 14 2 19 5 13 2 -7 2 -19 0 -25z m-500 -10 c-3 -8 -6 -5 -6 6 -1 11 2
17 5 13 3 -3 4 -12 1 -19z m90 0 c-3 -8 -6 -5 -6 6 -1 11 2 17 5 13 3 -3 4
-12 1 -19z m-219 5 l-38 -4 0 -65 0 -64 100 0 100 0 0 45 c0 41 -2 45 -25 45
-14 0 -25 3 -25 8 0 4 28 5 62 2 35 -2 51 -6 36 -8 -26 -3 -28 -7 -28 -48 l0
-44 100 0 100 0 0 64 0 65 -37 4 c-21 2 -2 4 42 4 44 0 63 -2 43 -4 l-38 -4 0
-64 0 -64 93 -4 c50 -1 -90 -3 -313 -3 -223 0 -363 2 -312 3 l92 4 0 64 0 64
-37 4 c-21 2 -2 4 42 4 44 0 63 -2 43 -4z m-259 -58 c0 -5 -4 -3 -9 5 -5 8 -9
22 -9 30 0 16 17 -16 18 -35z m871 8 c-11 -17 -11 -17 -6 0 3 10 6 24 7 30 0
9 2 9 5 0 3 -7 0 -20 -6 -30z m-851 -53 c11 -24 11 -24 -3 -6 -9 11 -16 24
-16 30 0 12 5 7 19 -24z m841 22 c0 -5 -7 -17 -15 -28 -14 -18 -14 -17 -4 9
12 27 19 34 19 19z m-82 -89 c-3 -17 -28 -18 -348 -18 -320 0 -345 1 -348 18
-3 16 19 17 348 17 329 0 351 -1 348 -17z m42 13 c0 -2 -8 -10 -17 -17 -16
-13 -17 -12 -4 4 13 16 21 21 21 13z m-58 -70 c-30 -32 -139 -106 -156 -106
-6 1 1 8 17 16 15 8 27 19 27 24 0 6 -85 10 -220 10 -135 0 -220 -4 -220 -10
0 -5 12 -16 28 -24 15 -8 22 -15 16 -16 -17 0 -126 74 -156 106 l-27 29 359 0
359 0 -27 -29z m-192 -94 c-49 -22 -231 -22 -280 0 -34 16 -29 16 140 16 169
0 174 0 140 -16z m-243 -28 c-3 -3 -12 -4 -19 -1 -8 3 -5 6 6 6 11 1 17 -2 13
-5z m230 0 c-3 -3 -12 -4 -19 -1 -8 3 -5 6 6 6 11 1 17 -2 13 -5z m-159 -11
c-10 -2 -28 -2 -40 0 -13 2 -5 4 17 4 22 1 32 -1 23 -4z m110 0 c-10 -2 -28
-2 -40 0 -13 2 -5 4 17 4 22 1 32 -1 23 -4z"/>
<path d="M460 873 c-31 -11 -50 -37 -50 -68 0 -48 21 -70 70 -70 49 0 70 22
70 70 0 45 -49 82 -90 68z m33 -20 c-7 -2 -19 -2 -25 0 -7 3 -2 5 12 5 14 0
19 -2 13 -5z m12 -29 c18 -19 16 -33 -8 -48 -18 -11 -47 0 -54 21 -4 12 23 43
37 43 5 0 16 -7 25 -16z m-56 -59 c16 -20 16 -20 -6 -1 -13 11 -22 29 -22 40
1 20 2 20 6 1 3 -11 12 -29 22 -40z m70 1 c-22 -20 -23 -20 -6 0 9 11 18 29
18 40 1 18 2 18 6 0 3 -11 -4 -27 -18 -40z"/>
<path d="M178 150 l32 -30 270 0 270 0 32 30 33 29 -335 0 -335 0 33 -29z
m576 -5 c-28 -21 -520 -21 -548 0 -18 13 14 15 274 15 260 0 292 -2 274 -15z"/>
</g>
</svg>
